<svg width="128" height="128" viewBox="0 0 128 128" fill="none" xmlns="http://www.w3.org/2000/svg">
<rect width="128" height="128" fill="white"/>
<path d="M80 27L107.713 75H52.2872L80 27Z" fill="#1763A9"/>
<path d="M64 27L91.7128 75H36.2872L64 27Z" fill="#2EB554"/>
<path d="M48 27L75.7128 75H20.2872L48 27Z" fill="#D02C2C"/>
<path d="M31.2418 83.564C31.2418 84.084 31.1058 84.544 30.8338 84.944C30.5618 85.344 30.1698 85.656 29.6578 85.88C29.1538 86.096 28.5538 86.204 27.8578 86.204C26.4818 86.204 25.3858 85.804 24.5698 85.004L25.5658 83.9C26.1978 84.46 26.9458 84.74 27.8098 84.74C28.2258 84.74 28.5578 84.652 28.8058 84.476C29.0618 84.292 29.1898 84.04 29.1898 83.72C29.1898 83.416 29.0818 83.18 28.8658 83.012C28.6578 82.836 28.2658 82.66 27.6898 82.484C26.7138 82.188 26.0218 81.84 25.6138 81.44C25.2058 81.04 25.0018 80.524 25.0018 79.892C25.0018 79.396 25.1378 78.964 25.4098 78.596C25.6898 78.228 26.0658 77.948 26.5378 77.756C27.0178 77.564 27.5498 77.468 28.1338 77.468C29.3578 77.468 30.3498 77.828 31.1098 78.548L30.1858 79.616C29.9058 79.384 29.6018 79.212 29.2738 79.1C28.9538 78.98 28.6218 78.92 28.2778 78.92C27.8938 78.92 27.5898 78.992 27.3658 79.136C27.1498 79.272 27.0418 79.472 27.0418 79.736C27.0418 79.912 27.0898 80.06 27.1858 80.18C27.2898 80.3 27.4578 80.412 27.6898 80.516C27.9218 80.62 28.2698 80.744 28.7338 80.888C29.5818 81.144 30.2098 81.476 30.6178 81.884C31.0338 82.284 31.2418 82.844 31.2418 83.564ZM33.9851 84.2L33.5531 86H31.4891L34.0331 77.684H36.4211L38.9651 86H36.8531L36.4211 84.2H33.9851ZM36.0971 82.784L35.1971 79.1L34.2971 82.784H36.0971ZM45.8124 86H44.0844L43.9884 82.436C43.9804 82.26 43.9764 82.02 43.9764 81.716C43.9764 81.316 43.9884 80.928 44.0124 80.552C44.0364 80.168 44.0644 79.768 44.0964 79.352L43.1604 84.584H41.6724L40.6524 79.352C40.7404 80.272 40.7844 81.1 40.7844 81.836L40.7724 82.472L40.7124 86H39.0204L39.4884 77.684H41.5164L42.4404 83.06L43.3164 77.684H45.3444L45.8124 86ZM52.8277 83.564C52.8277 84.084 52.6917 84.544 52.4197 84.944C52.1477 85.344 51.7557 85.656 51.2437 85.88C50.7397 86.096 50.1397 86.204 49.4437 86.204C48.0677 86.204 46.9717 85.804 46.1557 85.004L47.1517 83.9C47.7837 84.46 48.5317 84.74 49.3957 84.74C49.8117 84.74 50.1437 84.652 50.3917 84.476C50.6477 84.292 50.7757 84.04 50.7757 83.72C50.7757 83.416 50.6677 83.18 50.4517 83.012C50.2437 82.836 49.8517 82.66 49.2757 82.484C48.2997 82.188 47.6077 81.84 47.1997 81.44C46.7917 81.04 46.5877 80.524 46.5877 79.892C46.5877 79.396 46.7237 78.964 46.9957 78.596C47.2757 78.228 47.6517 77.948 48.1237 77.756C48.6037 77.564 49.1357 77.468 49.7197 77.468C50.9437 77.468 51.9357 77.828 52.6957 78.548L51.7717 79.616C51.4917 79.384 51.1877 79.212 50.8597 79.1C50.5397 78.98 50.2077 78.92 49.8637 78.92C49.4797 78.92 49.1757 78.992 48.9517 79.136C48.7357 79.272 48.6277 79.472 48.6277 79.736C48.6277 79.912 48.6757 80.06 48.7717 80.18C48.8757 80.3 49.0437 80.412 49.2757 80.516C49.5077 80.62 49.8557 80.744 50.3197 80.888C51.1677 81.144 51.7957 81.476 52.2037 81.884C52.6197 82.284 52.8277 82.844 52.8277 83.564ZM55.571 84.2L55.139 86H53.075L55.619 77.684H58.007L60.551 86H58.439L58.007 84.2H55.571ZM57.683 82.784L56.783 79.1L55.883 82.784H57.683ZM62.4063 79.316C62.4863 79.924 62.5543 80.512 62.6103 81.08C62.6663 81.64 62.6943 82.236 62.6943 82.868V86H61.0263V77.684H63.4863L65.5983 84.344C65.4063 83.112 65.3103 81.952 65.3103 80.864V77.684H66.9783V86H64.5903L62.4063 79.316ZM79.365 86H77.397V79.196H75.057V77.684H81.789L81.597 79.196H79.365V86ZM85.0723 81.092H87.9523V82.46H85.0723V84.584H88.5403V86H83.1043V77.684H88.5403L88.3363 79.088H85.0723V81.092ZM93.4796 77.468C94.0556 77.468 94.5516 77.544 94.9676 77.696C95.3836 77.848 95.7756 78.076 96.1436 78.38L95.1836 79.544C94.6796 79.136 94.1276 78.932 93.5276 78.932C92.9596 78.932 92.4996 79.172 92.1476 79.652C91.8036 80.132 91.6316 80.856 91.6316 81.824C91.6316 82.792 91.8036 83.512 92.1476 83.984C92.4916 84.448 92.9636 84.68 93.5636 84.68C93.9316 84.68 94.2476 84.616 94.5116 84.488C94.7756 84.36 95.0596 84.176 95.3636 83.936L96.2516 85.076C95.5156 85.828 94.5836 86.204 93.4556 86.204C92.6956 86.204 92.0236 86.036 91.4396 85.7C90.8636 85.364 90.4116 84.868 90.0836 84.212C89.7556 83.548 89.5916 82.752 89.5916 81.824C89.5916 80.92 89.7596 80.14 90.0956 79.484C90.4316 78.828 90.8956 78.328 91.4876 77.984C92.0796 77.64 92.7436 77.468 93.4796 77.468ZM100.987 82.496H98.9709V86H97.0029V77.684H98.9709V80.876H100.987V77.684H102.955V86H100.987V82.496Z" fill="#1763A9"/>
</svg>
